<svg width="171" height="61" viewBox="0 0 171 61" fill="none" xmlns="http://www.w3.org/2000/svg">
<g clip-path="url(#clip0_1773_1876)">
<path d="M12.4678 39.3435C8.96231 38.9292 6.61106 37.9292 4.47356 35.9578C2.25056 33.8863 1.02506 31.7006 0.341063 28.5721C0.0845625 27.4292 0.0703125 26.5006 0.0703125 13.7149V0.0720424L1.66631 0.0291853L3.26231 -0.0136719L3.30506 13.9578C3.36206 27.7006 3.36206 27.9435 3.66131 28.8721C4.60181 31.8721 6.49706 34.1006 9.14756 35.3578C11.8551 36.6435 14.7193 36.5863 17.5123 35.2006C18.6096 34.6578 19.0656 34.3149 20.0061 33.3721C21.3456 32.0292 21.9583 31.0578 22.5568 29.3149C22.9416 28.1863 22.9843 27.9149 22.9843 26.2149C22.9843 24.5149 22.9416 24.2435 22.5568 23.1149C21.9583 21.3721 21.3456 20.4006 20.0203 19.0721C19.1938 18.2292 18.5668 17.7578 17.7403 17.3292C15.9306 16.4006 15.1753 16.2149 13.0378 16.2292C11.3991 16.2435 11.0571 16.2863 10.1166 16.6292C9.53231 16.8292 8.67731 17.2435 8.20706 17.5292C7.72256 17.8292 7.12406 18.0721 6.75356 18.1149C6.21206 18.1721 6.08381 18.1292 5.69906 17.7435C5.15756 17.2006 5.11481 16.4149 5.58506 15.7149C6.24056 14.7578 8.72006 13.6292 11.0713 13.2149C15.1896 12.4863 19.4646 13.8863 22.4428 16.9149C24.9936 19.5149 26.2618 22.5721 26.2618 26.1435C26.2476 28.0292 26.0623 29.1578 25.4496 30.7578C23.9533 34.7006 20.5048 37.8435 16.5433 38.8578C15.6028 39.1006 13.1946 39.4721 12.9666 39.4149C12.9238 39.4006 12.7101 39.3578 12.4678 39.3435ZM43.4758 39.2721C37.9611 38.6149 33.7146 34.8721 32.1756 29.3149C31.8621 28.2292 31.8621 28.0435 31.8193 14.1006L31.7623 -0.0136719L33.3726 0.0291853L34.9828 0.0720424L35.0541 14.2149L35.1253 28.3578L35.5386 29.4292C36.5076 31.9863 37.8756 33.6578 39.9988 34.9292C45.6276 38.2578 52.7953 35.1149 54.4341 28.6006C55.2891 25.2292 54.1918 21.3863 51.7266 19.0292C48.3208 15.7721 43.6468 15.2578 39.5856 17.6863C38.8731 18.1006 38.6593 18.1721 38.1463 18.1006C36.9351 17.9292 36.5218 16.7292 37.3056 15.6292C37.9896 14.7006 40.3836 13.6292 42.7491 13.2149C47.0098 12.4578 51.3703 13.9578 54.4056 17.2006C55.4886 18.3721 55.9446 19.0435 56.6998 20.5721C57.6403 22.5292 57.9111 23.7149 57.9111 26.1435C57.9111 28.6863 57.6546 29.7578 56.4861 32.1149C55.8021 33.5006 55.4886 33.9435 54.4056 35.0863C52.6671 36.9006 51.1423 37.9006 49.0191 38.6149C47.1238 39.2435 45.1716 39.4863 43.4758 39.2721ZM73.4008 39.2721C67.9146 38.6006 63.4971 34.7435 62.1006 29.3863C61.6588 27.7006 61.6588 24.7149 62.1006 23.0006C62.4568 21.6578 63.0838 20.2292 63.9103 18.9292C64.5943 17.8435 66.8173 15.6435 67.8718 15.0292C71.8333 12.6578 76.4646 12.3863 80.3263 14.2863C81.6231 14.9292 83.0766 16.0149 83.4186 16.6006C83.9031 17.4006 83.6181 18.3578 82.7916 18.7863C82.1361 19.1292 81.7798 19.0435 80.9391 18.3578C77.6188 15.6292 73.0018 15.4149 69.3681 17.8149C67.5583 19.0149 65.9908 21.1435 65.3211 23.3578C65.1216 24.0149 65.0646 24.6721 65.0646 26.1435C65.0646 28.3578 65.2213 29.0863 66.1618 30.9292C66.9598 32.5149 68.8693 34.4292 70.3941 35.1721C71.8476 35.8863 72.8023 36.1435 74.3271 36.2435C76.7068 36.4006 78.8871 35.7863 80.8821 34.4149C81.6373 33.9006 82.0933 33.7863 82.7061 34.0006C84.0741 34.4435 83.9458 36.1578 82.4781 37.0863C79.8703 38.7435 76.2366 39.6292 73.4008 39.2721ZM99.6778 39.3435C96.3291 38.8863 94.4481 38.1435 92.3248 36.4721C89.8311 34.4863 88.1353 31.5721 87.5653 28.3292C87.1806 26.1006 87.3801 23.9721 88.2066 21.6721C90.4723 15.4292 97.3408 11.7578 103.668 13.4149C105.734 13.9721 108.256 15.3863 108.94 16.4006C109.567 17.3149 109.354 18.3149 108.442 18.7863C107.786 19.1292 107.416 19.0435 106.589 18.3435C105.677 17.5863 104.281 16.8435 103.084 16.4863C101.901 16.1149 99.0223 16.1149 97.8396 16.4863C93.5076 17.8006 90.6291 21.6863 90.6291 26.2149C90.6291 28.6292 91.6408 31.2149 93.2938 33.0006C95.2176 35.0863 97.2981 36.0863 100.034 36.2435C102.428 36.3863 103.696 36.0149 106.903 34.2578C107.672 33.8435 107.772 33.8292 108.299 33.9863C108.969 34.1863 109.297 34.6006 109.297 35.2863C109.297 36.2721 108.727 36.8578 106.789 37.8292C104.794 38.8435 101.359 39.5721 99.6778 39.3435ZM125.399 39.3292C123.333 39.1149 121.709 38.6721 120.212 37.9149C116.493 36.0149 113.956 32.5292 113.215 28.3292C112.945 26.7578 112.945 25.8578 113.215 24.1863C114.384 16.9292 121.195 11.9721 128.291 13.2149C130.643 13.6292 133.123 14.7578 133.778 15.7149C134.348 16.5721 134.106 17.6435 133.223 18.0006C132.624 18.2578 132.025 18.1149 130.885 17.4578C129.275 16.5292 128.05 16.2149 126.04 16.2292C124.145 16.2292 123.262 16.4292 121.78 17.1721C119.87 18.1292 118.26 19.7578 117.348 21.6435C115.78 24.8292 115.98 28.6721 117.861 31.5721C120.668 35.9292 125.855 37.4721 130.315 35.2863C132.41 34.2578 134.02 32.6292 135.032 30.5006C136.058 28.3292 136.001 29.3149 136.058 13.9006L136.101 0.00061383H139.236L139.193 14.1863L139.15 28.3578L138.752 29.6149C136.999 35.2578 132.524 38.8721 126.753 39.3149C126.283 39.3578 125.67 39.3578 125.399 39.3292ZM157.105 39.3435C153.358 38.8863 151.192 37.9292 148.883 35.7292C146.903 33.8578 145.791 31.9435 145.121 29.3006C144.708 27.7006 144.651 25.1721 144.993 23.6006C145.919 19.1578 149.125 15.3863 153.272 13.8721C155.595 13.0149 157.661 12.8149 159.97 13.2149C161.438 13.4721 162.093 13.6863 163.504 14.3435C165.356 15.2006 166.097 16.1721 165.684 17.1721C165.428 17.8006 165.143 18.0149 164.458 18.1006C163.988 18.1721 163.732 18.0863 162.82 17.5863C162.235 17.2578 161.281 16.8149 160.711 16.6149C159.785 16.2721 159.47 16.2435 157.747 16.2435C156.023 16.2435 155.709 16.2721 154.754 16.6149C153.158 17.2006 151.89 18.0435 150.693 19.3149C148.869 21.2578 148.028 23.4149 148.028 26.1435C148.028 27.9292 148.27 29.0292 149.054 30.6435C150.095 32.8006 151.577 34.2863 153.7 35.3006C156.507 36.6435 159.3 36.6149 162.15 35.2006C163.247 34.6578 163.703 34.3149 164.644 33.3721C165.969 32.0435 166.582 31.0863 167.209 29.3292L167.65 28.0721L167.693 14.0435L167.735 0.00061383H170.857L170.828 14.2578C170.771 30.0149 170.843 28.8149 169.845 31.2292C168.392 34.7149 165.271 37.5863 161.737 38.7006C160.312 39.1435 158.06 39.4578 157.105 39.3435Z" fill="#68002B"/>
<path d="M43.4769 39.2714C37.9622 38.6143 33.6872 34.8429 32.1767 29.3143C31.8917 28.2714 31.8774 27.8 31.8204 21.0143C31.7634 14.1 31.7634 13.8286 32.0199 13.9143C32.1624 13.9714 32.9034 14.2857 33.6587 14.6143L35.0409 15.2143L35.0837 21.7857L35.1264 28.3571L35.5397 29.4286C36.5087 31.9857 37.8767 33.6571 39.9999 34.9286C45.6287 38.2571 52.7964 35.1143 54.4352 28.6C55.1049 25.9571 54.5919 22.9857 53.0529 20.6286C52.7964 20.2286 52.5827 19.8571 52.5827 19.8C52.5827 19.7571 53.4234 19.7143 54.4352 19.7143H56.3019L56.7864 20.7571C57.6557 22.5714 57.9122 23.7857 57.9122 26.1429C57.9122 28.6857 57.6557 29.7571 56.4872 32.1143C55.8032 33.5 55.4897 33.9429 54.4067 35.0857C52.6682 36.9 51.1434 37.9 49.0202 38.6143C47.1249 39.2429 45.1727 39.4857 43.4769 39.2714ZM125.4 39.3286C124.303 39.2143 123.006 38.9714 122.137 38.7C120.712 38.2714 118.418 37.0286 118.418 36.6857C118.418 36.4429 119.629 34 119.743 34C119.814 34 120.299 34.2857 120.826 34.6286C125.842 37.9429 132.411 36.0429 135.033 30.5C136.059 28.3286 136.002 29.3143 136.059 13.9L136.102 0H139.237L139.194 14.1857L139.152 28.3571L138.753 29.6143C137 35.2571 132.525 38.8714 126.754 39.3143C126.284 39.3571 125.671 39.3571 125.4 39.3286ZM71.1077 38.8C66.6759 37.4714 63.2844 33.9286 62.1017 29.3857C61.6599 27.7 61.6599 24.7143 62.1017 23C62.4579 21.6571 63.0849 20.2286 63.9114 18.9286C64.5954 17.8429 66.8184 15.6429 67.8729 15.0286C70.2527 13.6143 72.8747 12.9143 75.3827 13.0571C76.6224 13.1286 78.8312 13.5 78.2897 13.5571C78.19 13.5714 78.0189 13.8143 77.9049 14.1C77.7909 14.4 77.5202 15.0143 77.3207 15.4714L76.9359 16.2857L75.6249 16.2C71.5922 15.9143 67.9299 17.9429 66.1344 21.4286C65.2367 23.1857 65.0657 23.9429 65.0657 26.1429C65.0657 28.3571 65.2224 29.0857 66.1629 30.9286C67.2887 33.1429 69.8679 35.2857 72.1479 35.8857L72.8177 36.0571V37.6C72.8177 39.4 72.9032 39.3429 71.1077 38.8ZM24.4532 24.6429C23.6694 24.2857 22.9997 24.0286 22.9712 24.0714C22.9284 24.1143 22.7147 23.6286 22.5152 23C21.9737 21.4 21.3324 20.3857 20.0214 19.0714C19.1949 18.2286 18.5679 17.7571 17.7414 17.3286C15.9317 16.4 15.1764 16.2143 13.0389 16.2286C11.4002 16.2429 11.0582 16.2857 10.1177 16.6286C9.5334 16.8286 8.6784 17.2429 8.20815 17.5286C7.72365 17.8286 7.12515 18.0714 6.75465 18.1143C6.21315 18.1714 6.0849 18.1286 5.70015 17.7429C5.15865 17.2 5.1159 16.4143 5.6004 15.7143C6.4839 14.3857 10.4027 13 13.2527 13C14.2644 13 16.2167 13.3143 17.1714 13.6429C20.7482 14.8429 23.7977 17.6143 25.2227 20.9857C26.0207 22.8571 26.4767 25.2857 26.0492 25.2857C25.9494 25.2857 25.2227 24.9857 24.4532 24.6429ZM169.148 24.6714L167.794 24.0571L167.751 12.0286L167.723 0H170.858V12.6429C170.858 22.6571 170.815 25.2857 170.687 25.2857C170.587 25.2857 169.889 25 169.148 24.6714ZM146.704 19.3C147.402 17.9429 149.497 15.8714 151.207 14.8429C153.003 13.7714 155.724 13 157.748 13C161.111 13 165.215 14.6429 165.728 16.2143C165.856 16.5857 165.842 16.8 165.685 17.1714C165.429 17.8 165.144 18.0143 164.46 18.1C163.989 18.1714 163.733 18.0857 162.821 17.5857C162.237 17.2571 161.282 16.8143 160.712 16.6143C159.786 16.2714 159.472 16.2429 157.748 16.2429C156.024 16.2429 155.71 16.2714 154.755 16.6143C153.33 17.1286 152.005 17.9714 151.05 18.9286L150.281 19.7143H146.476L146.704 19.3Z" fill="#99003C"/>
<path d="M37.6757 18.0004C37.2055 17.8147 36.9062 17.2861 36.9062 16.6719C36.9062 16.029 36.9205 16.029 38.545 16.7861C39.1007 17.0433 39.6707 17.2861 39.8275 17.3147C40.0555 17.3576 39.9842 17.4433 39.457 17.7576C38.8015 18.1433 38.2315 18.229 37.6757 18.0004Z" fill="#99003C"/>
<path d="M43.4768 39.2721C37.962 38.6149 33.5588 34.7149 32.205 29.3149C31.8915 28.0578 31.863 27.7149 32.0768 27.7149C32.148 27.7149 32.7465 27.3578 33.402 26.9292C34.0433 26.5006 34.6703 26.1435 34.7985 26.1435C34.9695 26.1435 35.0265 26.3863 35.0978 27.2578C35.34 30.3149 37.2353 33.2863 39.9998 34.9292C45.6285 38.2578 52.7963 35.1149 54.435 28.6006C55.1048 25.9578 54.5918 22.9863 53.0528 20.6292C52.7963 20.2292 52.5825 19.8578 52.5825 19.8006C52.5825 19.7578 53.4233 19.7149 54.435 19.7149H56.3018L56.7863 20.7578C57.6555 22.5721 57.912 23.7863 57.912 26.1435C57.912 28.6863 57.6555 29.7578 56.487 32.1149C55.803 33.5006 55.4895 33.9435 54.4065 35.0863C52.668 36.9006 51.1433 37.9006 49.02 38.6149C47.1248 39.2435 45.1725 39.4863 43.4768 39.2721ZM71.1075 38.8006C66.6758 37.4721 63.2843 33.9292 62.1015 29.3863C61.6598 27.7006 61.6598 24.7149 62.1015 23.0006C62.4578 21.6578 63.099 20.2149 63.897 18.9721C64.3958 18.1721 66.063 16.2863 66.2483 16.2863C66.291 16.2863 66.6758 16.8292 67.089 17.5006C67.5165 18.1721 67.9155 18.7149 67.9868 18.7149C68.058 18.7149 67.773 19.1292 67.3313 19.6435C66.4763 20.6578 65.7353 22.0292 65.322 23.3578C64.9515 24.5721 64.9515 27.7149 65.322 28.9292C66.3195 32.2149 69.141 35.0863 72.1478 35.8863L72.8175 36.0578V37.6006C72.8175 39.4006 72.903 39.3435 71.1075 38.8006ZM134.904 33.3292L134.135 32.0721L134.406 31.6863C134.805 31.1149 135.474 29.6006 135.759 28.6435C135.987 27.8578 136.016 26.6578 136.059 13.9006L136.101 0.00061383H139.236L139.194 14.1863L139.151 28.3578L138.752 29.6149C138.096 31.7292 136.5 34.5721 135.959 34.5721C135.774 34.5721 135.446 34.1863 134.904 33.3292ZM87.3525 25.8006C87.3525 24.9149 87.78 22.8863 88.2075 21.6721C90.4733 15.4292 97.3418 11.7578 103.669 13.4149C105.735 13.9721 108.257 15.3863 108.941 16.4006C109.568 17.3149 109.355 18.3149 108.443 18.7863C107.787 19.1292 107.417 19.0435 106.59 18.3435C105.678 17.5863 104.282 16.8435 103.085 16.4863C101.902 16.1149 99.0233 16.1149 97.8405 16.4863C96.0023 17.0435 94.3065 18.1149 93.081 19.5292C91.7273 21.0435 90.63 23.8292 90.63 25.7149V26.2863H87.3525V25.8006ZM0.0285 9.90062L0.07125 0.0720424L1.6815 0.0291853L3.2775 -0.0136719V19.7149H0L0.0285 9.90062ZM146.703 19.3006C147.402 17.9435 149.496 15.8721 151.206 14.8435C153.002 13.7721 155.724 13.0006 157.748 13.0006C158.831 13.0006 160.911 13.3292 161.865 13.6578C162.891 14.0006 164.588 14.8292 164.588 14.9721C164.588 15.0578 164.217 15.3578 163.775 15.6578C163.319 15.9435 162.678 16.3721 162.35 16.5863L161.751 16.9863L160.712 16.6149C159.785 16.2721 159.458 16.2435 157.748 16.2435C156.023 16.2435 155.709 16.2721 154.755 16.6149C153.33 17.1292 152.004 17.9721 151.05 18.9292L150.281 19.7149H146.475L146.703 19.3006ZM5.7 17.7435C5.1585 17.2006 5.11575 16.4149 5.60025 15.7149C6.48375 14.3863 10.4025 13.0006 13.2525 13.0006C14.2928 13.0006 16.2165 13.3149 17.2425 13.6578C18.1688 13.9721 19.95 14.8435 19.95 14.9863C19.95 15.0578 19.5795 15.3578 19.1378 15.6578C18.6818 15.9435 18.0548 16.3578 17.727 16.5721L17.1428 16.9578L16.0883 16.6006C15.1478 16.2721 14.82 16.2292 13.11 16.2292C11.3858 16.2435 11.0723 16.2721 10.1175 16.6292C9.53325 16.8292 8.67825 17.2435 8.208 17.5292C7.7235 17.8292 7.125 18.0721 6.7545 18.1149C6.213 18.1721 6.08475 18.1292 5.7 17.7435ZM131.741 17.9149C131.513 17.8006 131 17.5149 130.601 17.2863C129.689 16.7721 128.292 16.3435 127.067 16.2149L126.113 16.1149V12.9578L127.181 13.0578C129.903 13.3006 133.124 14.6149 133.808 15.7578C134.705 17.2149 133.266 18.7149 131.741 17.9149ZM167.723 6.50062V0.00061383H170.858V5.64347C170.858 10.1149 170.814 11.2863 170.672 11.2863C170.573 11.2863 169.917 11.6721 169.218 12.1435C168.506 12.6149 167.894 13.0006 167.837 13.0006C167.765 13.0006 167.723 10.072 167.723 6.50062Z" fill="#DB0053"/>
</g>
<path d="M23.412 55V49.144H24.624V51.52H25.608L27.42 49.144H28.74L26.76 51.772C26.952 51.86 27.128 51.996 27.288 52.18C27.456 52.356 27.628 52.6 27.804 52.912L29.016 55H27.72L26.7 53.248C26.516 52.936 26.336 52.728 26.16 52.624C25.992 52.52 25.756 52.468 25.452 52.468H24.624V55H23.412ZM32.4602 55.108C31.8682 55.108 31.3562 54.984 30.9242 54.736C30.4922 54.488 30.1562 54.14 29.9162 53.692C29.6842 53.236 29.5682 52.696 29.5682 52.072C29.5682 51.448 29.6842 50.912 29.9162 50.464C30.1562 50.008 30.4922 49.656 30.9242 49.408C31.3562 49.16 31.8682 49.036 32.4602 49.036C33.0362 49.036 33.5402 49.16 33.9722 49.408C34.4042 49.656 34.7402 50.008 34.9802 50.464C35.2202 50.912 35.3402 51.448 35.3402 52.072C35.3402 52.696 35.2202 53.236 34.9802 53.692C34.7402 54.14 34.4042 54.488 33.9722 54.736C33.5402 54.984 33.0362 55.108 32.4602 55.108ZM32.4602 54.172C32.9562 54.172 33.3562 53.992 33.6602 53.632C33.9642 53.272 34.1162 52.752 34.1162 52.072C34.1162 51.392 33.9642 50.876 33.6602 50.524C33.3562 50.164 32.9562 49.984 32.4602 49.984C31.9562 49.984 31.5522 50.164 31.2482 50.524C30.9442 50.876 30.7922 51.392 30.7922 52.072C30.7922 52.752 30.9442 53.272 31.2482 53.632C31.5522 53.992 31.9562 54.172 32.4602 54.172ZM39.422 55.108C38.822 55.108 38.302 54.984 37.862 54.736C37.43 54.48 37.094 54.124 36.854 53.668C36.614 53.204 36.494 52.66 36.494 52.036C36.494 51.108 36.758 50.376 37.286 49.84C37.814 49.304 38.526 49.036 39.422 49.036C39.79 49.036 40.154 49.1 40.514 49.228C40.874 49.356 41.17 49.532 41.402 49.756L41.018 50.608C40.794 50.4 40.546 50.248 40.274 50.152C40.01 50.048 39.758 49.996 39.518 49.996C38.95 49.996 38.51 50.176 38.198 50.536C37.894 50.888 37.742 51.392 37.742 52.048C37.742 52.704 37.894 53.22 38.198 53.596C38.51 53.964 38.95 54.148 39.518 54.148C39.758 54.148 40.01 54.1 40.274 54.004C40.546 53.9 40.794 53.744 41.018 53.536L41.402 54.4C41.17 54.616 40.87 54.788 40.502 54.916C40.142 55.044 39.782 55.108 39.422 55.108ZM42.5722 55V49.144H43.5682L45.6922 52.852L47.8042 49.144H48.8002V55H47.7322V51.028L45.9802 54.052H45.3922L43.6402 51.028V55H42.5722ZM53.3829 55.108C52.4229 55.108 51.6669 54.84 51.1149 54.304C50.5629 53.76 50.2869 53.02 50.2869 52.084C50.2869 51.484 50.4069 50.956 50.6469 50.5C50.8949 50.036 51.2349 49.676 51.6669 49.42C52.0989 49.164 52.5949 49.036 53.1549 49.036C53.9629 49.036 54.5989 49.296 55.0629 49.816C55.5269 50.328 55.7589 51.036 55.7589 51.94V52.348H51.4629C51.5509 53.564 52.1949 54.172 53.3949 54.172C53.7309 54.172 54.0589 54.12 54.3789 54.016C54.7069 53.912 55.0149 53.74 55.3029 53.5L55.6629 54.34C55.3989 54.58 55.0589 54.768 54.6429 54.904C54.2269 55.04 53.8069 55.108 53.3829 55.108ZM53.2029 49.888C52.6989 49.888 52.2989 50.044 52.0029 50.356C51.7069 50.668 51.5269 51.084 51.4629 51.604H54.7389C54.7149 51.06 54.5709 50.64 54.3069 50.344C54.0429 50.04 53.6749 49.888 53.2029 49.888ZM58.4212 55V50.116H56.3572V49.144H61.7092V50.116H59.6332V55H58.4212ZM62.6815 55V49.144H63.7855V53.392L66.9535 49.144H67.9735V55H66.8695V50.764L63.7015 55H62.6815ZM69.7948 55V49.144H71.0068V51.52H71.9908L73.8028 49.144H75.1228L73.1428 51.772C73.3348 51.86 73.5108 51.996 73.6708 52.18C73.8388 52.356 74.0108 52.6 74.1868 52.912L75.3988 55H74.1028L73.0828 53.248C72.8988 52.936 72.7188 52.728 72.5428 52.624C72.3748 52.52 72.1388 52.468 71.8348 52.468H71.0068V55H69.7948ZM78.171 55.108C77.763 55.108 77.399 55.028 77.079 54.868C76.759 54.708 76.503 54.492 76.311 54.22C76.127 53.948 76.035 53.64 76.035 53.296C76.035 52.864 76.143 52.524 76.359 52.276C76.583 52.028 76.947 51.848 77.451 51.736C77.963 51.624 78.651 51.568 79.515 51.568H79.923V51.256C79.923 50.8 79.827 50.472 79.635 50.272C79.443 50.072 79.127 49.972 78.687 49.972C78.351 49.972 78.015 50.024 77.679 50.128C77.343 50.224 76.999 50.38 76.647 50.596L76.275 49.744C76.579 49.528 76.959 49.356 77.415 49.228C77.871 49.1 78.307 49.036 78.723 49.036C79.523 49.036 80.115 49.228 80.499 49.612C80.883 49.988 81.075 50.58 81.075 51.388V55H79.935V54.028C79.791 54.364 79.567 54.628 79.263 54.82C78.959 55.012 78.595 55.108 78.171 55.108ZM78.411 54.244C78.843 54.244 79.203 54.092 79.491 53.788C79.779 53.484 79.923 53.1 79.923 52.636V52.312H79.527C78.943 52.312 78.483 52.34 78.147 52.396C77.819 52.452 77.583 52.548 77.439 52.684C77.303 52.812 77.235 52.992 77.235 53.224C77.235 53.528 77.339 53.776 77.547 53.968C77.755 54.152 78.043 54.244 78.411 54.244ZM86.0253 55V49.144H87.2373V51.52H88.2213L90.0333 49.144H91.3533L89.3733 51.772C89.5653 51.86 89.7413 51.996 89.9013 52.18C90.0693 52.356 90.2413 52.6 90.4173 52.912L91.6293 55H90.3333L89.3133 53.248C89.1293 52.936 88.9493 52.728 88.7733 52.624C88.6053 52.52 88.3693 52.468 88.0653 52.468H87.2373V55H86.0253ZM95.0735 55.108C94.4815 55.108 93.9695 54.984 93.5375 54.736C93.1055 54.488 92.7695 54.14 92.5295 53.692C92.2975 53.236 92.1815 52.696 92.1815 52.072C92.1815 51.448 92.2975 50.912 92.5295 50.464C92.7695 50.008 93.1055 49.656 93.5375 49.408C93.9695 49.16 94.4815 49.036 95.0735 49.036C95.6495 49.036 96.1535 49.16 96.5855 49.408C97.0175 49.656 97.3535 50.008 97.5935 50.464C97.8335 50.912 97.9535 51.448 97.9535 52.072C97.9535 52.696 97.8335 53.236 97.5935 53.692C97.3535 54.14 97.0175 54.488 96.5855 54.736C96.1535 54.984 95.6495 55.108 95.0735 55.108ZM95.0735 54.172C95.5695 54.172 95.9695 53.992 96.2735 53.632C96.5775 53.272 96.7295 52.752 96.7295 52.072C96.7295 51.392 96.5775 50.876 96.2735 50.524C95.9695 50.164 95.5695 49.984 95.0735 49.984C94.5695 49.984 94.1655 50.164 93.8615 50.524C93.5575 50.876 93.4055 51.392 93.4055 52.072C93.4055 52.752 93.5575 53.272 93.8615 53.632C94.1655 53.992 94.5695 54.172 95.0735 54.172ZM99.4553 57.16V49.144H100.643V50.14C100.811 49.804 101.067 49.536 101.411 49.336C101.755 49.136 102.151 49.036 102.599 49.036C103.119 49.036 103.571 49.16 103.955 49.408C104.347 49.656 104.647 50.008 104.855 50.464C105.071 50.912 105.179 51.448 105.179 52.072C105.179 52.696 105.071 53.236 104.855 53.692C104.647 54.148 104.347 54.5 103.955 54.748C103.571 54.988 103.119 55.108 102.599 55.108C102.167 55.108 101.779 55.016 101.435 54.832C101.099 54.64 100.843 54.38 100.667 54.052V57.16H99.4553ZM102.299 54.172C102.803 54.172 103.203 53.992 103.499 53.632C103.803 53.272 103.955 52.752 103.955 52.072C103.955 51.392 103.803 50.876 103.499 50.524C103.203 50.164 102.803 49.984 102.299 49.984C101.795 49.984 101.391 50.164 101.087 50.524C100.791 50.876 100.643 51.392 100.643 52.072C100.643 52.752 100.791 53.272 101.087 53.632C101.391 53.992 101.795 54.172 102.299 54.172ZM109.218 55.108C108.626 55.108 108.114 54.984 107.682 54.736C107.25 54.488 106.914 54.14 106.674 53.692C106.442 53.236 106.326 52.696 106.326 52.072C106.326 51.448 106.442 50.912 106.674 50.464C106.914 50.008 107.25 49.656 107.682 49.408C108.114 49.16 108.626 49.036 109.218 49.036C109.794 49.036 110.298 49.16 110.73 49.408C111.162 49.656 111.498 50.008 111.738 50.464C111.978 50.912 112.098 51.448 112.098 52.072C112.098 52.696 111.978 53.236 111.738 53.692C111.498 54.14 111.162 54.488 110.73 54.736C110.298 54.984 109.794 55.108 109.218 55.108ZM109.218 54.172C109.714 54.172 110.114 53.992 110.418 53.632C110.722 53.272 110.874 52.752 110.874 52.072C110.874 51.392 110.722 50.876 110.418 50.524C110.114 50.164 109.714 49.984 109.218 49.984C108.714 49.984 108.31 50.164 108.006 50.524C107.702 50.876 107.55 51.392 107.55 52.072C107.55 52.752 107.702 53.272 108.006 53.632C108.31 53.992 108.714 54.172 109.218 54.172ZM116.18 55.108C115.276 55.108 114.56 54.824 114.032 54.256C113.512 53.688 113.252 52.852 113.252 51.748V50.86C113.252 49.692 113.5 48.804 113.996 48.196C114.492 47.58 115.232 47.144 116.216 46.888L118.28 46.348L118.664 47.32L116.3 47.92C115.676 48.08 115.204 48.372 114.884 48.796C114.564 49.22 114.404 49.744 114.404 50.368V50.416C114.588 50.032 114.856 49.728 115.208 49.504C115.568 49.28 115.996 49.168 116.492 49.168C116.988 49.168 117.424 49.288 117.8 49.528C118.184 49.76 118.484 50.096 118.7 50.536C118.916 50.976 119.024 51.496 119.024 52.096C119.024 52.712 118.904 53.248 118.664 53.704C118.432 54.152 118.1 54.5 117.668 54.748C117.244 54.988 116.748 55.108 116.18 55.108ZM116.132 54.172C116.66 54.172 117.068 54 117.356 53.656C117.652 53.304 117.8 52.8 117.8 52.144C117.8 51.496 117.652 50.996 117.356 50.644C117.06 50.284 116.652 50.104 116.132 50.104C115.62 50.104 115.216 50.28 114.92 50.632C114.624 50.976 114.476 51.452 114.476 52.06C114.476 52.756 114.62 53.284 114.908 53.644C115.204 53.996 115.612 54.172 116.132 54.172ZM120.514 55V49.144H121.726V51.52H122.71L124.522 49.144H125.842L123.862 51.772C124.054 51.86 124.23 51.996 124.39 52.18C124.558 52.356 124.73 52.6 124.906 52.912L126.118 55H124.822L123.802 53.248C123.618 52.936 123.438 52.728 123.262 52.624C123.094 52.52 122.858 52.468 122.554 52.468H121.726V55H120.514ZM128.89 55.108C128.482 55.108 128.118 55.028 127.798 54.868C127.478 54.708 127.222 54.492 127.03 54.22C126.846 53.948 126.754 53.64 126.754 53.296C126.754 52.864 126.862 52.524 127.078 52.276C127.302 52.028 127.666 51.848 128.17 51.736C128.682 51.624 129.37 51.568 130.234 51.568H130.642V51.256C130.642 50.8 130.546 50.472 130.354 50.272C130.162 50.072 129.846 49.972 129.406 49.972C129.07 49.972 128.734 50.024 128.398 50.128C128.062 50.224 127.718 50.38 127.366 50.596L126.994 49.744C127.298 49.528 127.678 49.356 128.134 49.228C128.59 49.1 129.026 49.036 129.442 49.036C130.242 49.036 130.834 49.228 131.218 49.612C131.602 49.988 131.794 50.58 131.794 51.388V55H130.654V54.028C130.51 54.364 130.286 54.628 129.982 54.82C129.678 55.012 129.314 55.108 128.89 55.108ZM129.13 54.244C129.562 54.244 129.922 54.092 130.21 53.788C130.498 53.484 130.642 53.1 130.642 52.636V52.312H130.246C129.662 52.312 129.202 52.34 128.866 52.396C128.538 52.452 128.302 52.548 128.158 52.684C128.022 52.812 127.954 52.992 127.954 53.224C127.954 53.528 128.058 53.776 128.266 53.968C128.474 54.152 128.762 54.244 129.13 54.244ZM133.592 55V49.144H134.588L136.712 52.852L138.824 49.144H139.82V55H138.752V51.028L137 54.052H136.412L134.66 51.028V55H133.592ZM141.642 55V49.144H142.746V53.392L145.914 49.144H146.934V55H145.83V50.764L142.662 55H141.642Z" fill="url(#paint0_linear_1773_1876)"/>
<defs>
<linearGradient id="paint0_linear_1773_1876" x1="85.8684" y1="55.8182" x2="85.8684" y2="42" gradientUnits="userSpaceOnUse">
<stop stop-color="#68002B"/>
<stop offset="1" stop-color="#DB0053"/>
</linearGradient>
<clipPath id="clip0_1773_1876">
<rect width="171" height="40" fill="white"/>
</clipPath>
</defs>
</svg>
